<svg width="47" height="53" viewBox="0 0 47 53" fill="none" xmlns="http://www.w3.org/2000/svg">
<mask id="mask0_159_1483" style="mask-type:luminance" maskUnits="userSpaceOnUse" x="16" y="14" width="15" height="19">
<path d="M20.5178 18.0179H24.4155C25.4893 18.0179 26.4127 18.9092 26.4127 20.0151C26.4127 21.1211 25.4893 22.1197 24.4155 22.1197H20.5178V18.0179ZM16.8777 14.2598C16.5878 14.2598 16.373 14.496 16.373 14.7644V32.1809C16.373 32.4386 16.5878 32.6855 16.8777 32.6855H20.0131C20.2815 32.6855 20.5178 32.4493 20.5178 32.1809V25.4699H22.3324L25.8329 32.4386C25.8866 32.546 26.0477 32.6748 26.2517 32.6748H29.7521C30.2031 32.6748 30.3857 32.256 30.2031 31.9124L26.5845 25.2336C28.8717 24.3102 30.4823 22.3667 30.4823 19.9507C30.4823 16.8153 27.9053 14.2705 24.7484 14.2705H16.8777V14.2598Z" fill="white"/>
</mask>
<g mask="url(#mask0_159_1483)">
<path d="M30.4823 14.2598H16.3838V32.6748H30.4823V14.2598Z" fill="url(#paint0_linear_159_1483)"/>
</g>
<mask id="mask1_159_1483" style="mask-type:luminance" maskUnits="userSpaceOnUse" x="16" y="42" width="15" height="11">
<path d="M16.9834 43.8104L23.8984 52.9696L30.8242 43.8104L23.8984 42.3823L16.9834 43.8104Z" fill="white"/>
</mask>
<g mask="url(#mask1_159_1483)">
<path d="M22.0309 59.6371L11.8838 46.2472L25.7676 35.7244L35.9146 49.1035L22.0309 59.6371Z" fill="url(#paint1_linear_159_1483)"/>
</g>
<mask id="mask2_159_1483" style="mask-type:luminance" maskUnits="userSpaceOnUse" x="0" y="21" width="40" height="26">
<path fill-rule="evenodd" clip-rule="evenodd" d="M0.5 21.2214L11.8897 35.9744L16.887 38.4675L20.1337 39.2647L21.2218 39.3995L21.5273 39.4259L21.5307 39.4204C22.1562 39.4937 22.7921 39.5355 23.4384 39.5355H23.5995C32.2218 39.4496 39.2013 32.5775 39.4697 23.9982C39.4804 24.17 39.4804 24.3418 39.4804 24.5136C39.4804 28.6261 38.4496 32.4916 36.6457 35.874C34.1331 40.6093 30.0743 44.4104 25.1564 46.6116C24.5873 46.6546 24.0183 46.6761 23.4384 46.6761C10.6392 46.6761 0.266602 36.3035 0.266602 23.5042C0.266602 22.7311 0.298814 21.9795 0.373978 21.2279L0.375198 21.2153H0.518175L0.5 21.2214Z" fill="white"/>
</mask>
<g mask="url(#mask2_159_1483)">
<path d="M39.4804 0.676025H0.266602V46.6653H39.4804V0.676025Z" fill="url(#paint2_linear_159_1483)"/>
</g>
<mask id="mask3_159_1483" style="mask-type:luminance" maskUnits="userSpaceOnUse" x="0" y="0" width="47" height="40">
<path d="M19.4016 0.676124C9.25454 2.45857 1.38385 10.8339 0.374512 21.228C1.63082 26.2532 4.45481 30.6556 8.29889 33.8769C11.9175 36.9156 16.4273 38.9128 21.3881 39.4175C13.4852 38.4189 7.38619 31.6757 7.38619 23.5043C7.38619 14.6458 14.5697 7.46231 23.4282 7.46231C30.7513 7.46231 36.9147 12.3587 38.8475 19.0482C39.2233 20.6374 39.4273 22.3017 39.4595 23.9983C39.4488 24.4063 39.4488 24.7929 39.4595 25.1579V25.1794C39.7387 32.1911 44.8391 28.4329 46.6 23.5473V23.4936C46.6 13.5935 40.383 5.13224 31.6425 1.82505C29.087 0.858664 26.3274 0.33252 23.439 0.33252C22.0538 0.33252 20.7116 0.450634 19.4016 0.676124Z" fill="white"/>
</mask>
<g mask="url(#mask3_159_1483)">
<path d="M46.6 0.33252H0.374512V39.4175H46.6V0.33252Z" fill="url(#paint3_linear_159_1483)"/>
</g>
<mask id="mask4_159_1483" style="mask-type:luminance" maskUnits="userSpaceOnUse" x="8" y="1" width="39" height="46">
<path d="M25.3701 2.52338C17.1881 4.54206 10.6488 10.7162 8.11475 18.6728C10.1656 12.1658 16.2431 7.45196 23.4266 7.45196C30.7497 7.45196 36.9131 12.3483 38.8459 19.0379C39.2217 20.627 39.4257 22.2914 39.4579 23.9879C39.4472 24.3959 39.4472 24.7825 39.4579 25.1476V25.1691C39.3613 29.0239 38.3519 32.6532 36.6339 35.853C34.1213 40.5883 30.0625 44.3787 25.1446 46.5906C37.1171 45.7102 46.5662 35.7242 46.5984 23.5369V23.4832C46.5984 13.5831 40.3813 5.12189 31.6409 1.8147C31.4906 1.8147 31.3295 1.8147 31.1792 1.8147C29.1713 1.8147 27.2277 2.06166 25.3701 2.52338Z" fill="white"/>
</mask>
<g mask="url(#mask4_159_1483)">
<path d="M43.5814 -8.53638L58.6571 43.0902L11.143 56.9632L-3.93262 5.33665L43.5814 -8.53638Z" fill="url(#paint4_linear_159_1483)"/>
</g>
<mask id="mask5_159_1483" style="mask-type:luminance" maskUnits="userSpaceOnUse" x="8" y="1" width="28" height="18">
<path d="M8.12549 18.6725C8.39393 17.8994 8.68385 17.1585 8.99524 16.4499C8.36172 17.7921 8.12549 18.6725 8.12549 18.6725ZM8.99524 16.4606C11.1642 11.8864 17.9182 1.96478 35.3669 3.63985L31.6409 1.82519C31.6409 1.82519 31.5765 1.82519 31.4691 1.82519C31.3725 1.82519 31.2329 1.81445 31.0503 1.81445C28.1297 1.81445 15.0942 2.56609 8.99524 16.4606Z" fill="white"/>
</mask>
<g mask="url(#mask5_159_1483)">
<path d="M40.8217 16.6753L11.3576 27.4881L2.6709 3.81158L32.135 -7.00122L40.8217 16.6753Z" fill="url(#paint5_linear_159_1483)"/>
</g>
<mask id="mask6_159_1483" style="mask-type:luminance" maskUnits="userSpaceOnUse" x="19" y="23" width="21" height="24">
<path d="M19.876 46.3968C22.7107 47.0196 25.1589 46.6115 25.1589 46.6115C41.1365 39.3529 39.4829 23.5042 39.4829 23.5042C39.5259 44.5714 19.876 46.3968 19.876 46.3968Z" fill="white"/>
</mask>
<g mask="url(#mask6_159_1483)">
<path d="M8.14893 34.3064L31.3637 12.8955L52.8604 36.2069L29.6457 57.6178L8.14893 34.3064Z" fill="url(#paint6_linear_159_1483)"/>
</g>
<mask id="mask7_159_1483" style="mask-type:luminance" maskUnits="userSpaceOnUse" x="0" y="17" width="22" height="23">
<path d="M0.37505 21.228C5.45395 39.2673 21.496 39.4176 21.496 39.4176C2.36151 37.2486 0.976357 17.7705 0.976357 17.7705C0.213985 20.1972 0.37505 21.228 0.37505 21.228Z" fill="white"/>
</mask>
<g mask="url(#mask7_159_1483)">
<path d="M17.0492 9.11597L30.2994 34.897L4.66869 48.0829L-8.59229 22.3018L17.0492 9.11597Z" fill="url(#paint7_linear_159_1483)"/>
</g>
<defs>
<linearGradient id="paint0_linear_159_1483" x1="16.3773" y1="23.4645" x2="30.4778" y2="23.4645" gradientUnits="userSpaceOnUse">
<stop stop-color="#E0C56F"/>
<stop offset="0.00446948" stop-color="#E0C56F"/>
<stop offset="1" stop-color="#976218"/>
</linearGradient>
<linearGradient id="paint1_linear_159_1483" x1="25.0625" y1="49.2197" x2="19.806" y2="42.2872" gradientUnits="userSpaceOnUse">
<stop stop-color="#E0C56F"/>
<stop offset="0.00446948" stop-color="#E0C56F"/>
<stop offset="1" stop-color="#976218"/>
</linearGradient>
<linearGradient id="paint2_linear_159_1483" x1="0.258928" y1="23.6719" x2="39.4712" y2="23.6719" gradientUnits="userSpaceOnUse">
<stop stop-color="#CBCCCC"/>
<stop offset="0.00447002" stop-color="#CBCCCC"/>
<stop offset="0.6688" stop-color="#959696"/>
<stop offset="1" stop-color="#7F8080"/>
</linearGradient>
<linearGradient id="paint3_linear_159_1483" x1="0.370576" y1="19.8634" x2="46.6004" y2="19.8634" gradientUnits="userSpaceOnUse">
<stop stop-color="#504F53"/>
<stop offset="6.71301e-07" stop-color="#504F53"/>
<stop offset="1"/>
</linearGradient>
<linearGradient id="paint4_linear_159_1483" x1="22.7581" y1="8.44571" x2="32.9431" y2="43.3294" gradientUnits="userSpaceOnUse">
<stop stop-color="#E0C56F"/>
<stop offset="0.00446948" stop-color="#E0C56F"/>
<stop offset="1" stop-color="#976218"/>
</linearGradient>
<linearGradient id="paint5_linear_159_1483" x1="32.4109" y1="6.3336" x2="13.9081" y2="13.1236" gradientUnits="userSpaceOnUse">
<stop stop-color="#E0C56F"/>
<stop offset="0.00446948" stop-color="#E0C56F"/>
<stop offset="1" stop-color="#976218"/>
</linearGradient>
<linearGradient id="paint6_linear_159_1483" x1="21.8542" y1="43.2211" x2="35.9552" y2="30.2197" gradientUnits="userSpaceOnUse">
<stop stop-color="#CBCCCC"/>
<stop offset="0.00447002" stop-color="#CBCCCC"/>
<stop offset="0.6688" stop-color="#959696"/>
<stop offset="1" stop-color="#7F8080"/>
</linearGradient>
<linearGradient id="paint7_linear_159_1483" x1="5.03942" y1="17.2939" x2="14.2059" y2="35.1177" gradientUnits="userSpaceOnUse">
<stop stop-color="#504F53"/>
<stop offset="6.71301e-07" stop-color="#504F53"/>
<stop offset="1"/>
</linearGradient>
</defs>
</svg>
