<svg width="66" height="75" viewBox="0 0 66 75" fill="none" xmlns="http://www.w3.org/2000/svg">
<mask id="mask0_147_4" style="mask-type:luminance" maskUnits="userSpaceOnUse" x="23" y="19" width="21" height="27">
<path d="M29.3163 25.0841H34.7948C36.3041 25.0841 37.602 26.3368 37.602 27.8913C37.602 29.4458 36.3041 30.8494 34.7948 30.8494H29.3163V25.0841ZM24.1999 19.8018C23.7925 19.8018 23.4906 20.1338 23.4906 20.5111V44.991C23.4906 45.3532 23.7925 45.7004 24.1999 45.7004H28.6069C28.9842 45.7004 29.3163 45.3683 29.3163 44.991V35.5583H31.8669L36.787 45.3532C36.8625 45.5042 37.0889 45.6853 37.3756 45.6853H42.2958C42.9297 45.6853 43.1862 45.0967 42.9297 44.6137L37.8435 35.2262C41.0582 33.9283 43.3221 31.1965 43.3221 27.8007C43.3221 23.3938 39.6999 19.8168 35.2627 19.8168H24.1999V19.8018Z" fill="white"/>
</mask>
<g mask="url(#mask0_147_4)">
<path d="M43.3219 19.8018H23.5055V45.6853H43.3219V19.8018Z" fill="url(#paint0_linear_147_4)"/>
</g>
<mask id="mask1_147_4" style="mask-type:luminance" maskUnits="userSpaceOnUse" x="24" y="59" width="20" height="16">
<path d="M24.348 61.3369L34.0675 74.2107L43.8022 61.3369L34.0675 59.3296L24.348 61.3369Z" fill="white"/>
</mask>
<g mask="url(#mask1_147_4)">
<path d="M31.4429 83.5825L17.1805 64.7623L36.6951 49.9717L50.9574 68.7768L31.4429 83.5825Z" fill="url(#paint1_linear_147_4)"/>
</g>
<path d="M65.9759 32.7804V32.8559C65.9457 49.9858 52.6643 64.0217 35.8212 65.2593C42.7335 62.1654 48.4384 56.8226 51.9701 50.1669C54.3698 45.6693 55.7885 40.5681 55.9394 35.1499V35.1197C55.9394 34.8179 55.9545 34.516 55.9545 34.2142C55.9545 33.9727 55.9545 33.7312 55.9394 33.4897C55.9394 33.2483 55.9545 33.0219 55.9545 32.7804C55.9545 30.6071 55.6526 28.5092 55.0791 26.5321C52.6945 16.1938 45.5709 7.65151 36.123 3.30489C33.4818 2.09749 30.6747 1.22213 27.7316 0.708988C29.5729 0.392047 31.4746 0.210938 33.4064 0.210938C37.4813 0.22603 41.3601 0.965559 44.9521 2.32388C57.2524 6.98744 65.9759 18.8652 65.9759 32.7804Z" fill="#00A99D"/>
<mask id="mask2_147_4" style="mask-type:luminance" maskUnits="userSpaceOnUse" x="0" y="0" width="56" height="66">
<path d="M1.00273 29.5959C0.897084 30.6524 0.851807 31.7088 0.851807 32.7955C0.851807 50.7857 15.4311 65.365 33.4213 65.365C34.2363 65.365 35.0362 65.3348 35.8361 65.2744C42.7484 62.1805 48.4533 56.8377 51.985 50.182C54.5205 45.4279 55.9694 39.9946 55.9694 34.2142C55.9694 33.9727 55.9694 33.7312 55.9543 33.4897C55.577 45.5486 45.7669 55.2078 33.6477 55.3285C33.5722 55.3285 33.4967 55.3285 33.4213 55.3285C32.5006 55.3285 31.5951 55.2681 30.7046 55.1625C30.6594 55.1625 30.599 55.1625 30.5537 55.1474C19.4457 53.7438 10.8732 44.2657 10.8732 32.7804C10.8732 20.3291 20.97 10.2323 33.4213 10.2323C43.7143 10.2323 52.3774 17.1145 55.094 26.517C52.0302 13.2961 41.2392 3.01813 27.7465 0.708984C13.4842 3.21433 2.42142 14.9864 1.00273 29.5959Z" fill="white"/>
</mask>
<g mask="url(#mask2_147_4)">
<path d="M55.9694 0.708984H0.851807V65.3499H55.9694V0.708984Z" fill="url(#paint2_linear_147_4)"/>
</g>
<mask id="mask3_147_4" style="mask-type:luminance" maskUnits="userSpaceOnUse" x="1" y="0" width="65" height="56">
<path d="M27.7468 0.709032C13.4844 3.21438 2.42168 14.9865 1.00299 29.5959C2.76881 36.6592 6.73812 42.8471 12.1412 47.3748C17.2274 51.646 23.5662 54.4532 30.5389 55.1625C19.4309 53.7589 10.8584 44.2809 10.8584 32.7955C10.8584 20.3443 20.9552 10.2474 33.4064 10.2474C43.6995 10.2474 52.3625 17.1296 55.0792 26.5322C55.6074 28.7659 55.8942 31.1052 55.9395 33.4898C55.9244 34.0633 55.9244 34.6066 55.9395 35.1198V35.15C56.3319 45.0053 63.5008 39.723 65.9759 32.8559V32.7805C65.9759 18.8652 57.2374 6.97239 44.9522 2.32392C41.3602 0.965603 37.4814 0.226074 33.4215 0.226074C31.4746 0.226074 29.5881 0.392091 27.7468 0.709032Z" fill="white"/>
</mask>
<g mask="url(#mask3_147_4)">
<path d="M65.9757 0.226074H1.00281V55.1625H65.9757V0.226074Z" fill="url(#paint3_linear_147_4)"/>
</g>
<mask id="mask4_147_4" style="mask-type:luminance" maskUnits="userSpaceOnUse" x="11" y="2" width="55" height="64">
<path d="M36.1364 3.30567C24.6359 6.14305 15.4446 14.8212 11.8828 26.0047C14.7655 16.8587 23.3078 10.2331 33.4046 10.2331C43.6977 10.2331 52.3607 17.1152 55.0774 26.5178C55.6056 28.7515 55.8923 31.0908 55.9376 33.4754C55.9225 34.049 55.9225 34.5923 55.9376 35.1054V35.1356C55.8018 40.5538 54.3831 45.655 51.9683 50.1526C48.4367 56.8083 42.7317 62.136 35.8194 65.245C52.6475 64.0074 65.9288 49.9715 65.9741 32.8416V32.7661C65.9741 18.8509 57.2356 6.95804 44.9503 2.30957C44.739 2.30957 44.5127 2.30957 44.3014 2.30957C41.4791 2.30957 38.7473 2.6567 36.1364 3.30567Z" fill="white"/>
</mask>
<g mask="url(#mask4_147_4)">
<path d="M61.7332 -12.2397L82.9229 60.3247L16.1389 79.8241L-5.05084 7.25968L61.7332 -12.2397Z" fill="url(#paint4_linear_147_4)"/>
</g>
<mask id="mask5_147_4" style="mask-type:luminance" maskUnits="userSpaceOnUse" x="11" y="2" width="40" height="25">
<path d="M11.8975 26.0042C12.2748 24.9175 12.6823 23.8762 13.12 22.8801C12.2296 24.7666 11.8975 26.0042 11.8975 26.0042ZM13.12 22.8952C16.1687 16.4658 25.6618 2.52038 50.187 4.8748L44.95 2.32417C44.95 2.32417 44.8594 2.32417 44.7085 2.32417C44.5726 2.32417 44.3764 2.30908 44.1199 2.30908C40.0147 2.30908 21.6925 3.36555 13.12 22.8952Z" fill="white"/>
</mask>
<g mask="url(#mask5_147_4)">
<path d="M57.8544 23.1968L16.4408 38.3949L4.23102 5.11605L45.6447 -10.082L57.8544 23.1968Z" fill="url(#paint5_linear_147_4)"/>
</g>
<mask id="mask6_147_4" style="mask-type:luminance" maskUnits="userSpaceOnUse" x="28" y="32" width="29" height="34">
<path d="M28.4137 64.9725C32.3981 65.8478 35.8392 65.2743 35.8392 65.2743C58.2967 55.0718 55.9725 32.7954 55.9725 32.7954C56.0328 62.4068 28.4137 64.9725 28.4137 64.9725Z" fill="white"/>
</mask>
<g mask="url(#mask6_147_4)">
<path d="M11.9313 47.9786L44.5612 17.8843L74.7762 50.65L42.1464 80.7443L11.9313 47.9786Z" fill="url(#paint6_linear_147_4)"/>
</g>
<mask id="mask7_147_4" style="mask-type:luminance" maskUnits="userSpaceOnUse" x="0" y="24" width="31" height="32">
<path d="M1.00404 29.5961C8.14276 54.9514 30.6909 55.1627 30.6909 55.1627C3.79614 52.114 1.84922 24.7363 1.84922 24.7363C0.777656 28.1472 1.00404 29.5961 1.00404 29.5961Z" fill="white"/>
</mask>
<g mask="url(#mask7_147_4)">
<path d="M24.441 12.5718L43.0651 48.8087L7.03942 67.3422L-11.5997 31.1053L24.441 12.5718Z" fill="url(#paint7_linear_147_4)"/>
</g>
<defs>
<linearGradient id="paint0_linear_147_4" x1="23.4963" y1="32.7395" x2="43.3155" y2="32.7395" gradientUnits="userSpaceOnUse">
<stop stop-color="#E0C56F"/>
<stop offset="0.00446948" stop-color="#E0C56F"/>
<stop offset="1" stop-color="#976218"/>
</linearGradient>
<linearGradient id="paint1_linear_147_4" x1="35.704" y1="68.9403" x2="28.3157" y2="59.1962" gradientUnits="userSpaceOnUse">
<stop stop-color="#E0C56F"/>
<stop offset="0.00446948" stop-color="#E0C56F"/>
<stop offset="1" stop-color="#976218"/>
</linearGradient>
<linearGradient id="paint2_linear_147_4" x1="0.841022" y1="33.0311" x2="55.9564" y2="33.0311" gradientUnits="userSpaceOnUse">
<stop stop-color="#CBCCCC"/>
<stop offset="0.00447002" stop-color="#CBCCCC"/>
<stop offset="0.6688" stop-color="#959696"/>
<stop offset="1" stop-color="#7F8080"/>
</linearGradient>
<linearGradient id="paint3_linear_147_4" x1="0.997276" y1="27.678" x2="65.9762" y2="27.678" gradientUnits="userSpaceOnUse">
<stop stop-color="#504F53"/>
<stop offset="6.71301e-07" stop-color="#504F53"/>
<stop offset="1"/>
</linearGradient>
<linearGradient id="paint4_linear_147_4" x1="32.4646" y1="11.6297" x2="46.7804" y2="60.6609" gradientUnits="userSpaceOnUse">
<stop stop-color="#E0C56F"/>
<stop offset="0.00446948" stop-color="#E0C56F"/>
<stop offset="1" stop-color="#976218"/>
</linearGradient>
<linearGradient id="paint5_linear_147_4" x1="46.0324" y1="8.66092" x2="20.0256" y2="18.2047" gradientUnits="userSpaceOnUse">
<stop stop-color="#E0C56F"/>
<stop offset="0.00446948" stop-color="#E0C56F"/>
<stop offset="1" stop-color="#976218"/>
</linearGradient>
<linearGradient id="paint6_linear_147_4" x1="31.195" y1="60.5088" x2="51.0149" y2="42.2345" gradientUnits="userSpaceOnUse">
<stop stop-color="#CBCCCC"/>
<stop offset="0.00447002" stop-color="#CBCCCC"/>
<stop offset="0.6688" stop-color="#959696"/>
<stop offset="1" stop-color="#7F8080"/>
</linearGradient>
<linearGradient id="paint7_linear_147_4" x1="7.56049" y1="24.0664" x2="20.4446" y2="49.1189" gradientUnits="userSpaceOnUse">
<stop stop-color="#504F53"/>
<stop offset="6.71301e-07" stop-color="#504F53"/>
<stop offset="1"/>
</linearGradient>
</defs>
</svg>
