<svg width="259" height="75" viewBox="0 0 259 75" fill="none" xmlns="http://www.w3.org/2000/svg">
<mask id="mask0_147_84" style="mask-type:luminance" maskUnits="userSpaceOnUse" x="22" y="20" width="21" height="27">
<path d="M28.4645 25.6754H33.943C35.4523 25.6754 36.7502 26.9281 36.7502 28.4826C36.7502 30.0371 35.4523 31.4407 33.943 31.4407H28.4645V25.6754ZM23.3481 20.3931C22.9406 20.3931 22.6388 20.7251 22.6388 21.1024V45.5823C22.6388 45.9446 22.9406 46.2917 23.3481 46.2917H27.7551C28.1324 46.2917 28.4645 45.9596 28.4645 45.5823V36.1496H31.0151L35.9352 45.9446C36.0107 46.0955 36.2371 46.2766 36.5238 46.2766H41.444C42.0778 46.2766 42.3344 45.688 42.0778 45.205L36.9917 35.8175C40.2064 34.5196 42.4703 31.7879 42.4703 28.3921C42.4703 23.9851 38.8481 20.4082 34.4109 20.4082H23.3481V20.3931Z" fill="white"/>
</mask>
<g mask="url(#mask0_147_84)">
<path d="M42.4701 20.3931H22.6537V46.2766H42.4701V20.3931Z" fill="url(#paint0_linear_147_84)"/>
</g>
<mask id="mask1_147_84" style="mask-type:luminance" maskUnits="userSpaceOnUse" x="23" y="59" width="20" height="16">
<path d="M23.4962 61.9282L33.2158 74.802L42.9504 61.9282L33.2158 59.9209L23.4962 61.9282Z" fill="white"/>
</mask>
<g mask="url(#mask1_147_84)">
<path d="M30.5911 84.1738L16.3288 65.3536L35.8433 50.563L50.1056 69.3682L30.5911 84.1738Z" fill="url(#paint1_linear_147_84)"/>
</g>
<path d="M65.124 33.3717V33.4472C65.0939 50.5771 51.8125 64.613 34.9694 65.8506C41.8817 62.7567 47.5866 57.414 51.1183 50.7582C53.518 46.2606 54.9367 41.1594 55.0876 35.7412V35.711C55.0876 35.4092 55.1027 35.1073 55.1027 34.8055C55.1027 34.564 55.1027 34.3225 55.0876 34.0811C55.0876 33.8396 55.1027 33.6132 55.1027 33.3717C55.1027 31.1984 54.8008 29.1006 54.2273 27.1234C51.8427 16.7851 44.7191 8.24281 35.2712 3.89619C32.63 2.6888 29.8228 1.81344 26.8798 1.3003C28.7211 0.983355 30.6227 0.802246 32.5546 0.802246C36.6295 0.817339 40.5083 1.55687 44.1003 2.91519C56.4006 7.57875 65.124 19.4565 65.124 33.3717Z" fill="#00A99D"/>
<mask id="mask2_147_84" style="mask-type:luminance" maskUnits="userSpaceOnUse" x="0" y="1" width="56" height="65">
<path d="M0.150924 30.1872C0.0452773 31.2437 0 32.3001 0 33.3868C0 51.377 14.5793 65.9563 32.5695 65.9563C33.3845 65.9563 34.1844 65.9261 34.9843 65.8657C41.8966 62.7718 47.6015 57.4291 51.1332 50.7733C53.6687 46.0192 55.1176 40.5859 55.1176 34.8055C55.1176 34.564 55.1176 34.3225 55.1025 34.0811C54.7252 46.1399 44.9151 55.7991 32.7959 55.9198C32.7204 55.9198 32.6449 55.9198 32.5695 55.9198C31.6488 55.9198 30.7433 55.8594 29.8528 55.7538C29.8076 55.7538 29.7472 55.7538 29.7019 55.7387C18.5939 54.3351 10.0214 44.8571 10.0214 33.3717C10.0214 20.9205 20.1182 10.8236 32.5695 10.8236C42.8625 10.8236 51.5256 17.7058 54.2422 27.1084C51.1784 13.8874 40.3873 3.60944 26.8947 1.30029C12.6324 3.80564 1.56961 15.5777 0.150924 30.1872Z" fill="white"/>
</mask>
<g mask="url(#mask2_147_84)">
<path d="M55.1176 1.30029H0V65.9412H55.1176V1.30029Z" fill="url(#paint2_linear_147_84)"/>
</g>
<mask id="mask3_147_84" style="mask-type:luminance" maskUnits="userSpaceOnUse" x="0" y="0" width="66" height="56">
<path d="M26.895 1.30034C12.6327 3.80568 1.5699 15.5778 0.151215 30.1873C1.91703 37.2505 5.88634 43.4384 11.2894 47.9661C16.3756 52.2373 22.7144 55.0445 29.6871 55.7538C18.5791 54.3502 10.0066 44.8722 10.0066 33.3869C10.0066 20.9356 20.1034 10.8388 32.5547 10.8388C42.8477 10.8388 51.5108 17.7209 54.2274 27.1235C54.7556 29.3572 55.0424 31.6965 55.0877 34.0811C55.0726 34.6546 55.0726 35.1979 55.0877 35.7111V35.7413C55.4801 45.5966 62.649 40.3143 65.1241 33.4472V33.3718C65.1241 19.4565 56.3856 7.5637 44.1004 2.91523C40.5084 1.55691 36.6296 0.817383 32.5698 0.817383C30.6228 0.817383 28.7363 0.9834 26.895 1.30034Z" fill="white"/>
</mask>
<g mask="url(#mask3_147_84)">
<path d="M65.124 0.817383H0.151062V55.7538H65.124V0.817383Z" fill="url(#paint3_linear_147_84)"/>
</g>
<mask id="mask4_147_84" style="mask-type:luminance" maskUnits="userSpaceOnUse" x="11" y="2" width="55" height="64">
<path d="M35.2846 3.89698C23.7841 6.73436 14.5929 15.4125 11.031 26.596C13.9137 17.45 22.456 10.8244 32.5528 10.8244C42.8459 10.8244 51.5089 17.7066 54.2256 27.1091C54.7538 29.3428 55.0406 31.6821 55.0858 34.0668C55.0708 34.6403 55.0708 35.1836 55.0858 35.6967V35.7269C54.95 41.1451 53.5313 46.2463 51.1165 50.7439C47.5849 57.3997 41.88 62.7273 34.9676 65.8363C51.7957 64.5987 65.077 50.5628 65.1223 33.4329V33.3574C65.1223 19.4422 56.3838 7.54935 44.0986 2.90088C43.8873 2.90088 43.6609 2.90088 43.4496 2.90088C40.6273 2.90088 37.8956 3.248 35.2846 3.89698Z" fill="white"/>
</mask>
<g mask="url(#mask4_147_84)">
<path d="M60.8814 -11.6484L82.0712 60.916L15.2872 80.4154L-5.90262 7.85098L60.8814 -11.6484Z" fill="url(#paint4_linear_147_84)"/>
</g>
<mask id="mask5_147_84" style="mask-type:luminance" maskUnits="userSpaceOnUse" x="11" y="2" width="39" height="25">
<path d="M11.0457 26.5955C11.423 25.5089 11.8305 24.4675 12.2682 23.4714C11.3777 25.3579 11.0457 26.5955 11.0457 26.5955ZM12.2682 23.4865C15.3169 17.0571 24.81 3.11168 49.3352 5.4661L44.0981 2.91548C44.0981 2.91548 44.0076 2.91548 43.8567 2.91548C43.7208 2.91548 43.5246 2.90039 43.2681 2.90039C39.1629 2.90039 20.8407 3.95686 12.2682 23.4865Z" fill="white"/>
</mask>
<g mask="url(#mask5_147_84)">
<path d="M57.0026 23.7881L15.589 38.9862L3.37921 5.70735L44.7928 -9.49072L57.0026 23.7881Z" fill="url(#paint5_linear_147_84)"/>
</g>
<mask id="mask6_147_84" style="mask-type:luminance" maskUnits="userSpaceOnUse" x="27" y="33" width="29" height="34">
<path d="M27.5619 65.5638C31.5463 66.4391 34.9874 65.8656 34.9874 65.8656C57.4449 55.6632 55.1207 33.3867 55.1207 33.3867C55.181 62.9981 27.5619 65.5638 27.5619 65.5638Z" fill="white"/>
</mask>
<g mask="url(#mask6_147_84)">
<path d="M11.0795 48.5699L43.7093 18.4756L73.9244 51.2413L41.2945 81.3356L11.0795 48.5699Z" fill="url(#paint6_linear_147_84)"/>
</g>
<mask id="mask7_147_84" style="mask-type:luminance" maskUnits="userSpaceOnUse" x="0" y="25" width="30" height="31">
<path d="M0.152267 30.1874C7.29099 55.5427 29.8391 55.754 29.8391 55.754C2.94437 52.7053 0.997442 25.3276 0.997442 25.3276C-0.0741205 28.7385 0.152267 30.1874 0.152267 30.1874Z" fill="white"/>
</mask>
<g mask="url(#mask7_147_84)">
<path d="M23.5892 13.1631L42.2133 49.4L6.18764 67.9335L-12.4515 31.6966L23.5892 13.1631Z" fill="url(#paint7_linear_147_84)"/>
</g>
<path d="M81.1245 43.8328C81.1245 43.6554 81.2765 43.5034 81.4539 43.5034H82.1634C82.3407 43.5034 82.4928 43.6554 82.4928 43.8328V55.4128C82.4928 55.5901 82.3407 55.7422 82.1634 55.7422H81.4539C81.2765 55.7422 81.1245 55.5901 81.1245 55.4128V43.8328Z" fill="#7F8080"/>
<path d="M85.6616 49.8125H84.7747C84.572 49.8125 84.4453 49.6605 84.4453 49.4831V49.103C84.4453 48.9003 84.5974 48.7736 84.7747 48.7736H85.6616V46.8225C85.6616 46.6452 85.8136 46.4931 85.991 46.4931L86.5485 46.4678C86.7258 46.4678 86.8525 46.6198 86.8525 46.7972V48.7736H88.8797C89.0824 48.7736 89.2091 48.9257 89.2091 49.103V49.4831C89.2091 49.6605 89.057 49.8125 88.8797 49.8125H86.8525V53.9175C86.8525 54.627 87.0299 54.7536 87.4353 54.7536C87.8661 54.7536 88.4742 54.5003 88.7023 54.3736C88.9557 54.2215 89.0317 54.3482 89.1331 54.4749L89.3864 54.9057C89.5131 55.1084 89.4625 55.2097 89.2597 55.3364C89.0064 55.4885 88.0688 55.9192 87.258 55.9192C85.8643 55.9192 85.6363 55.0831 85.6363 53.9935V49.8125H85.6616Z" fill="#7F8080"/>
<path d="M90.6762 47.9121C90.6001 47.836 90.6001 47.6587 90.7775 47.4813C90.9549 47.3293 91.8671 46.5437 91.8671 45.2768C91.7911 45.3021 91.7151 45.3021 91.6644 45.3021C91.1323 45.3021 90.6762 44.846 90.6762 44.3139C90.6762 43.7565 91.1323 43.3257 91.6644 43.3257C92.2218 43.3257 92.83 43.6298 92.83 44.8967C92.83 46.341 91.9178 47.608 91.3603 48.1401C91.1829 48.2921 91.0563 48.2921 90.9296 48.1655L90.6762 47.9121Z" fill="#7F8080"/>
<path d="M94.2243 54.7794C94.3003 54.678 94.427 54.4246 94.4777 54.3486C94.5537 54.1966 94.7564 54.1713 94.9591 54.298C94.9591 54.298 95.7193 54.9061 96.6061 54.9061C97.3156 54.9061 97.7464 54.5513 97.7464 54.0699C97.7464 53.4618 97.2143 53.183 96.2007 52.6763C95.2632 52.2202 94.1989 51.612 94.1989 50.4211C94.1989 49.6862 94.7817 48.5967 96.4288 48.5967C97.341 48.5967 98.0505 48.9007 98.3799 49.1288C98.5319 49.2301 98.5826 49.4835 98.4812 49.6609L98.3292 49.9396C98.2278 50.1424 97.9744 50.193 97.8224 50.0917C97.8224 50.0917 97.0622 49.6609 96.4288 49.6609C95.6433 49.6609 95.4405 50.0663 95.4405 50.3704C95.4405 50.9532 96.0233 51.2066 96.7328 51.5613C97.9491 52.1441 99.0133 52.6763 99.0133 53.9432C99.0133 54.9568 98.0251 55.9197 96.6061 55.9197C95.4405 55.9197 94.7057 55.4382 94.3256 55.1342C94.2243 55.0581 94.1736 54.8808 94.2243 54.7794Z" fill="#7F8080"/>
<path d="M110.669 55.4133C110.669 55.5907 110.517 55.7427 110.339 55.7427H109.985C109.833 55.7427 109.731 55.616 109.681 55.464L109.579 54.9826C109.579 54.9826 108.743 55.9201 107.425 55.9201C105.652 55.9201 104.233 54.2477 104.233 52.2459C104.233 50.2442 105.626 48.5718 107.527 48.5718C108.794 48.5718 109.554 49.3066 109.554 49.3066L109.681 49.0025C109.731 48.8505 109.833 48.7492 110.01 48.7492H110.314C110.491 48.7492 110.643 48.9012 110.643 49.0786V55.4133H110.669ZM109.453 50.5482C109.453 50.5482 108.794 49.6867 107.679 49.6867C106.285 49.6867 105.474 50.903 105.474 52.2713C105.474 53.6396 106.285 54.8305 107.552 54.8305C108.819 54.8305 109.453 53.6649 109.453 53.6649V50.5482Z" fill="#7F8080"/>
<path d="M113.204 43.8328C113.204 43.6554 113.356 43.5034 113.533 43.5034H114.065C114.242 43.5034 114.395 43.6554 114.395 43.8328V55.4128C114.395 55.5901 114.242 55.7422 114.065 55.7422H113.533C113.356 55.7422 113.204 55.5901 113.204 55.4128V43.8328Z" fill="#7F8080"/>
<path d="M116.928 43.8328C116.928 43.6554 117.08 43.5034 117.257 43.5034H117.79C117.967 43.5034 118.119 43.6554 118.119 43.8328V55.4128C118.119 55.5901 117.967 55.7422 117.79 55.7422H117.257C117.08 55.7422 116.928 55.5901 116.928 55.4128V43.8328Z" fill="#7F8080"/>
<path d="M130.458 55.4133C130.458 55.5907 130.306 55.7427 130.129 55.7427H129.774C129.622 55.7427 129.521 55.616 129.47 55.464L129.369 54.9826C129.369 54.9826 128.533 55.9201 127.215 55.9201C125.441 55.9201 124.022 54.2477 124.022 52.2459C124.022 50.2442 125.416 48.5718 127.316 48.5718C128.583 48.5718 129.343 49.3066 129.343 49.3066L129.47 49.0025C129.521 48.8505 129.622 48.7492 129.8 48.7492H130.104C130.281 48.7492 130.433 48.9012 130.433 49.0786V55.4133H130.458ZM129.217 50.5482C129.217 50.5482 128.558 49.6867 127.443 49.6867C126.049 49.6867 125.239 50.903 125.239 52.2713C125.239 53.6396 126.049 54.8305 127.316 54.8305C128.583 54.8305 129.217 53.6649 129.217 53.6649V50.5482Z" fill="#7F8080"/>
<path d="M132.968 43.8328C132.968 43.6554 133.12 43.5034 133.297 43.5034H133.829C134.007 43.5034 134.159 43.6554 134.159 43.8328V49.0273C134.159 49.0273 134.868 48.5712 136.034 48.5712C138.137 48.5712 139.404 50.1929 139.404 52.2201C139.404 54.2218 138.01 55.9196 136.211 55.9196C134.893 55.9196 134.057 54.982 134.057 54.982L133.956 55.4635C133.93 55.6155 133.804 55.7422 133.652 55.7422H133.297C133.12 55.7422 132.968 55.5901 132.968 55.4128V43.8328ZM136.11 54.83C137.377 54.83 138.187 53.6137 138.187 52.2707C138.187 50.8771 137.427 49.7622 135.907 49.7622C134.944 49.7622 134.209 50.1929 134.209 50.1929V53.6897C134.184 53.6644 134.843 54.83 136.11 54.83Z" fill="#7F8080"/>
<path d="M144.371 48.5718C146.322 48.5718 147.842 50.2442 147.842 52.2206C147.842 54.2224 146.297 55.9201 144.371 55.9201C142.42 55.9201 140.899 54.2477 140.899 52.2206C140.874 50.2442 142.42 48.5718 144.371 48.5718ZM144.371 54.7798C145.638 54.7798 146.651 53.6396 146.651 52.2206C146.651 50.827 145.663 49.712 144.371 49.712C143.104 49.712 142.09 50.827 142.09 52.2206C142.09 53.6396 143.078 54.7798 144.371 54.7798Z" fill="#7F8080"/>
<path d="M149.743 49.0784C149.743 48.9011 149.895 48.749 150.072 48.749H150.63C150.807 48.749 150.959 48.9011 150.959 49.0784V52.7779C150.959 54.0956 151.542 54.7544 152.53 54.7544C153.848 54.7544 154.608 53.7662 154.608 53.7662V49.1038C154.608 48.9264 154.76 48.7744 154.937 48.7744H155.47C155.647 48.7744 155.799 48.9264 155.799 49.1038V55.4385C155.799 55.6159 155.647 55.7679 155.47 55.7679H155.14C154.937 55.7679 154.887 55.6412 154.836 55.4639L154.709 55.0078C154.709 55.0078 153.899 55.9453 152.429 55.9453C150.402 55.9453 149.718 54.6277 149.718 52.7779V49.0784H149.743Z" fill="#7F8080"/>
<path d="M158.764 49.8125H157.877C157.675 49.8125 157.548 49.6605 157.548 49.4831V49.103C157.548 48.9003 157.7 48.7736 157.877 48.7736H158.764V46.8225C158.764 46.6452 158.916 46.4931 159.094 46.4931L159.651 46.4678C159.828 46.4678 159.955 46.6198 159.955 46.7972V48.7736H161.982C162.185 48.7736 162.312 48.9257 162.312 49.103V49.4831C162.312 49.6605 162.16 49.8125 161.982 49.8125H159.955V53.9175C159.955 54.627 160.132 54.7536 160.538 54.7536C160.969 54.7536 161.577 54.5003 161.805 54.3736C162.058 54.2215 162.134 54.3482 162.236 54.4749L162.489 54.9057C162.616 55.1084 162.565 55.2097 162.362 55.3364C162.109 55.4885 161.171 55.9192 160.36 55.9192C158.967 55.9192 158.739 55.0831 158.739 53.9935V49.8125H158.764Z" fill="#7F8080"/>
<path d="M168.19 43.8328C168.19 43.6554 168.342 43.5034 168.519 43.5034H169.051C169.229 43.5034 169.381 43.6554 169.381 43.8328V49.0273C169.381 49.0273 170.09 48.5712 171.256 48.5712C173.359 48.5712 174.626 50.1929 174.626 52.2201C174.626 54.2218 173.232 55.9196 171.433 55.9196C170.115 55.9196 169.279 54.982 169.279 54.982L169.178 55.4635C169.153 55.6155 169.026 55.7422 168.874 55.7422H168.519C168.342 55.7422 168.19 55.5901 168.19 55.4128V43.8328ZM171.332 54.83C172.599 54.83 173.41 53.6137 173.41 52.2707C173.41 50.8771 172.649 49.7622 171.129 49.7622C170.166 49.7622 169.431 50.1929 169.431 50.1929V53.6897C169.406 53.6644 170.065 54.83 171.332 54.83Z" fill="#7F8080"/>
<path d="M179.515 48.5718C181.339 48.5718 182.682 49.9401 182.682 51.7645C182.682 51.8912 182.657 52.1192 182.657 52.2459C182.631 52.4233 182.505 52.55 182.353 52.55H177.31C177.386 53.7156 178.425 54.8305 179.667 54.8305C180.402 54.8305 180.984 54.5518 181.39 54.2984C181.643 54.1464 181.745 54.0704 181.871 54.2731C181.973 54.4251 182.074 54.5265 182.175 54.6785C182.302 54.8305 182.378 54.9319 182.099 55.1346C181.669 55.464 180.731 55.9454 179.54 55.9454C177.412 55.9454 176.119 54.2731 176.119 52.2713C176.094 50.2695 177.412 48.5718 179.515 48.5718ZM181.491 51.5618C181.44 50.5482 180.604 49.636 179.54 49.636C178.374 49.636 177.462 50.4722 177.336 51.5618H181.491Z" fill="#7F8080"/>
<path d="M184.608 43.8328C184.608 43.6554 184.76 43.5034 184.938 43.5034H185.47C185.647 43.5034 185.799 43.6554 185.799 43.8328V49.5088C185.799 49.5088 186.737 48.5712 188.156 48.5712C189.879 48.5712 190.867 49.6608 190.867 51.7133V55.4128C190.867 55.5901 190.715 55.7422 190.538 55.7422H189.98C189.803 55.7422 189.651 55.5901 189.651 55.4128V51.7133C189.651 50.3956 189.068 49.7368 188.08 49.7368C186.762 49.7368 185.825 50.725 185.825 50.725V55.4128C185.825 55.5901 185.673 55.7422 185.495 55.7422H184.963C184.786 55.7422 184.634 55.5901 184.634 55.4128V43.8328H184.608Z" fill="#7F8080"/>
<path d="M199.205 55.4133C199.205 55.5907 199.053 55.7427 198.875 55.7427H198.495C198.343 55.7427 198.242 55.616 198.191 55.464L198.09 54.9826C198.09 54.9826 197.254 55.9201 195.936 55.9201C194.162 55.9201 192.743 54.2477 192.743 52.2459C192.743 50.2442 194.137 48.5718 196.037 48.5718C197.304 48.5718 198.064 49.3066 198.064 49.3066L198.191 49.0025C198.242 48.8505 198.343 48.7492 198.521 48.7492H198.825C199.002 48.7492 199.154 48.9012 199.154 49.0786V55.4133H199.205ZM197.988 50.5482C197.988 50.5482 197.33 49.6867 196.215 49.6867C194.821 49.6867 194.01 50.903 194.01 52.2713C194.01 53.6396 194.821 54.8305 196.088 54.8305C197.355 54.8305 197.988 53.6649 197.988 53.6649V50.5482Z" fill="#7F8080"/>
<path d="M200.75 49.1544C200.649 48.9264 200.75 48.749 201.004 48.749H201.536C201.688 48.749 201.789 48.825 201.84 48.9517L204.019 53.9435H204.044L206.35 48.9517C206.401 48.8504 206.502 48.749 206.654 48.749H207.11C207.364 48.749 207.49 48.9264 207.364 49.1544L204.374 55.7426C204.348 55.8186 204.222 55.92 204.07 55.92H203.994C203.842 55.92 203.74 55.844 203.69 55.7426L200.75 49.1544Z" fill="#7F8080"/>
<path d="M208.656 44.6941C208.656 44.2127 209.036 43.8579 209.467 43.8579C209.948 43.8579 210.303 44.2127 210.303 44.6941C210.303 45.1502 209.948 45.5049 209.467 45.5049C209.036 45.5049 208.656 45.1502 208.656 44.6941ZM208.909 49.0777C208.909 48.9004 209.061 48.7483 209.239 48.7483H209.771C209.948 48.7483 210.1 48.9004 210.1 49.0777V55.4125C210.1 55.5899 209.948 55.7419 209.771 55.7419H209.239C209.061 55.7419 208.909 55.5899 208.909 55.4125V49.0777Z" fill="#7F8080"/>
<path d="M215.573 48.5718C217.524 48.5718 219.045 50.2442 219.045 52.2206C219.045 54.2224 217.499 55.9201 215.573 55.9201C213.622 55.9201 212.102 54.2477 212.102 52.2206C212.076 50.2442 213.622 48.5718 215.573 48.5718ZM215.573 54.7798C216.84 54.7798 217.854 53.6396 217.854 52.2206C217.854 50.827 216.866 49.712 215.573 49.712C214.306 49.712 213.293 50.827 213.293 52.2206C213.293 53.6396 214.281 54.7798 215.573 54.7798Z" fill="#7F8080"/>
<path d="M221.02 49.0786C221.02 48.9012 221.172 48.7492 221.35 48.7492H221.679C221.831 48.7492 221.932 48.8252 221.983 49.0025L222.135 49.5093C222.135 49.5093 222.794 48.5718 224.238 48.5718C224.77 48.5718 225.632 48.6478 225.454 49.1546L225.252 49.7374C225.176 49.9654 224.998 49.9654 224.821 49.8894C224.669 49.8134 224.39 49.7374 224.137 49.7374C222.819 49.7374 222.236 50.7256 222.236 50.7256V55.388C222.236 55.5654 222.084 55.7174 221.907 55.7174H221.375C221.198 55.7174 221.045 55.5654 221.045 55.388V49.0786H221.02Z" fill="#7F8080"/>
<path d="M81.1755 34.9128L88.0171 19.9121C88.0931 19.7854 88.2958 19.6587 88.3971 19.6587H88.6252C88.7265 19.6587 88.9293 19.76 89.0053 19.9121L95.7961 34.9128C95.9228 35.1915 95.7455 35.4956 95.4161 35.4956H94.0224C93.7437 35.4956 93.5916 35.3689 93.5156 35.1662L92.122 32.1002H84.8243C84.3682 33.1137 83.9121 34.1273 83.456 35.1662C83.38 35.3182 83.2026 35.4956 82.9492 35.4956H81.5556C81.2262 35.4956 81.0235 35.2169 81.1755 34.9128ZM91.2605 30.1997L88.5238 24.093H88.4225L85.6859 30.1997H91.2605Z" fill="#976218"/>
<path d="M98.0253 20.3185C98.0253 20.0904 98.2027 19.8877 98.4561 19.8877H103.448C106.134 19.8877 108.085 21.6614 108.085 24.018C108.085 25.741 106.818 26.9573 105.754 27.5654C106.945 28.0469 108.541 29.1365 108.541 31.1889C108.541 33.6975 106.489 35.4966 103.676 35.4966H98.4561C98.2027 35.4966 98.0253 35.2938 98.0253 35.0658V20.3185ZM103.676 33.4441C105.044 33.4441 106.083 32.4052 106.083 31.0115C106.083 29.6432 104.791 28.6803 103.347 28.6803H100.281V33.4441H103.676ZM103.321 26.6786C104.74 26.6786 105.627 25.6397 105.627 24.2967C105.627 22.9284 104.766 21.9908 103.321 21.9908H100.306V26.6786H103.321Z" fill="#976218"/>
<path d="M109.809 34.9128L116.651 19.9121C116.727 19.7854 116.929 19.6587 117.031 19.6587H117.259C117.36 19.6587 117.563 19.76 117.639 19.9121L124.43 34.9128C124.557 35.1915 124.379 35.4956 124.05 35.4956H122.656C122.377 35.4956 122.225 35.3689 122.149 35.1662L120.756 32.1002H113.458C113.002 33.1137 112.546 34.1273 112.09 35.1662C112.014 35.3182 111.836 35.4956 111.583 35.4956H110.189C109.835 35.4956 109.657 35.2169 109.809 34.9128ZM119.894 30.1997L117.158 24.093H117.056L114.32 30.1997H119.894Z" fill="#976218"/>
<path d="M131.575 20.3185C131.575 20.0904 131.753 19.8877 132.006 19.8877H138.062C140.748 19.8877 142.927 22.0162 142.927 24.6514C142.927 26.7039 141.559 28.4016 139.633 29.1871L142.699 34.8631C142.851 35.1418 142.699 35.5219 142.319 35.5219H140.571C140.393 35.5219 140.267 35.4205 140.216 35.3192L137.251 29.4152H133.881V35.0911C133.881 35.3192 133.679 35.5219 133.45 35.5219H132.006C131.753 35.5219 131.575 35.3192 131.575 35.0911V20.3185ZM137.885 27.4641C139.329 27.4641 140.596 26.2478 140.596 24.7021C140.596 23.2578 139.329 22.0415 137.885 22.0415H133.907V27.4641H137.885Z" fill="white"/>
<path d="M146.399 20.3185C146.399 20.0904 146.576 19.8877 146.829 19.8877H155.749C156.002 19.8877 156.18 20.0904 156.18 20.3185V21.5601C156.18 21.7881 156.002 21.9908 155.749 21.9908H148.705V26.5519H154.659C154.887 26.5519 155.09 26.7546 155.09 26.9826V28.2242C155.09 28.4776 154.887 28.655 154.659 28.655H148.705V33.4188H155.749C156.002 33.4188 156.18 33.6215 156.18 33.8495V35.0658C156.18 35.2938 156.002 35.4966 155.749 35.4966H146.829C146.576 35.4966 146.399 35.2938 146.399 35.0658V20.3185Z" fill="white"/>
<path d="M158.51 33.2404C158.713 32.9617 158.891 32.6069 159.093 32.3282C159.296 32.0495 159.6 31.9481 159.853 32.1508C159.98 32.2522 161.703 33.6965 163.426 33.6965C164.972 33.6965 165.935 32.759 165.935 31.6187C165.935 30.2758 164.769 29.4396 162.565 28.5274C160.284 27.5645 158.51 26.3989 158.51 23.789C158.51 22.0406 159.853 19.6587 163.401 19.6587C165.631 19.6587 167.303 20.8243 167.531 20.9763C167.709 21.0777 167.886 21.4071 167.658 21.7365C167.48 22.0152 167.278 22.3193 167.1 22.5727C166.923 22.8514 166.644 23.0034 166.315 22.8007C166.163 22.6994 164.592 21.6858 163.3 21.6858C161.424 21.6858 160.791 22.8767 160.791 23.6876C160.791 24.9545 161.779 25.7401 163.629 26.5002C166.214 27.5391 168.418 28.7808 168.418 31.492C168.418 33.8232 166.34 35.6983 163.452 35.6983C160.74 35.6983 159.017 34.2793 158.662 33.9246C158.46 33.7725 158.308 33.6205 158.51 33.2404Z" fill="white"/>
<path d="M178.377 19.6587C182.836 19.6587 186.409 23.2568 186.409 27.7165C186.409 32.1762 182.836 35.7236 178.377 35.7236C173.917 35.7236 170.37 32.1762 170.37 27.7165C170.37 23.2568 173.917 19.6587 178.377 19.6587ZM178.377 33.4938C181.569 33.4938 184.179 30.9092 184.179 27.7165C184.179 24.5491 181.569 21.8885 178.377 21.8885C175.209 21.8885 172.599 24.5491 172.599 27.7165C172.599 30.9092 175.209 33.4938 178.377 33.4938Z" fill="white"/>
<path d="M189.374 20.3185C189.374 20.0904 189.577 19.8877 189.805 19.8877H191.3C191.553 19.8877 191.731 20.0904 191.731 20.3185V29.5165C191.731 31.7464 193.15 33.4948 195.43 33.4948C197.736 33.4948 199.18 31.7717 199.18 29.5672V20.3185C199.18 20.0904 199.358 19.8877 199.611 19.8877H201.106C201.334 19.8877 201.537 20.0904 201.537 20.3185V29.6939C201.537 33.0893 198.978 35.7246 195.456 35.7246C191.959 35.7246 189.425 33.064 189.425 29.6939V20.3185H189.374Z" fill="white"/>
<path d="M205.642 20.3185C205.642 20.0904 205.819 19.8877 206.073 19.8877H212.129C214.814 19.8877 216.994 22.0162 216.994 24.6514C216.994 26.7039 215.625 28.4016 213.7 29.1871L216.766 34.8631C216.918 35.1418 216.766 35.5219 216.386 35.5219H214.637C214.46 35.5219 214.333 35.4205 214.282 35.3192L211.318 29.4152H207.948V35.0911C207.948 35.3192 207.745 35.5219 207.517 35.5219H206.073C205.819 35.5219 205.642 35.3192 205.642 35.0911V20.3185ZM211.951 27.4641C213.396 27.4641 214.662 26.2478 214.662 24.7021C214.662 23.2578 213.396 22.0415 211.951 22.0415H207.973V27.4641H211.951Z" fill="white"/>
<path d="M227.382 19.6587C229.637 19.6587 231.259 20.4189 232.779 21.7365C232.982 21.9139 232.982 22.1926 232.804 22.37L231.816 23.3835C231.664 23.5862 231.462 23.5862 231.259 23.3835C230.22 22.4713 228.776 21.8885 227.407 21.8885C224.215 21.8885 221.807 24.5745 221.807 27.6912C221.807 30.8079 224.24 33.4685 227.433 33.4685C229.054 33.4685 230.195 32.8097 231.259 31.9988C231.462 31.8468 231.664 31.8721 231.791 31.9735L232.804 32.987C232.982 33.1391 232.931 33.4431 232.779 33.5952C231.259 35.0648 229.333 35.749 227.357 35.749C222.897 35.749 219.299 32.2015 219.299 27.7418C219.324 23.2568 222.922 19.6587 227.382 19.6587Z" fill="white"/>
<path d="M235.997 20.3185C235.997 20.0904 236.175 19.8877 236.428 19.8877H245.322C245.576 19.8877 245.753 20.0904 245.753 20.3185V21.5601C245.753 21.7881 245.576 21.9908 245.322 21.9908H238.278V26.5519H244.233C244.461 26.5519 244.663 26.7546 244.663 26.9826V28.2242C244.663 28.4776 244.461 28.655 244.233 28.655H238.278V33.4188H245.322C245.576 33.4188 245.753 33.6215 245.753 33.8495V35.0658C245.753 35.2938 245.576 35.4966 245.322 35.4966H236.403C236.149 35.4966 235.972 35.2938 235.972 35.0658V20.3185H235.997Z" fill="white"/>
<path d="M248.108 33.2404C248.311 32.9617 248.488 32.6069 248.691 32.3282C248.894 32.0495 249.198 31.9481 249.451 32.1508C249.578 32.2522 251.301 33.6965 253.024 33.6965C254.57 33.6965 255.533 32.759 255.533 31.6187C255.533 30.2758 254.367 29.4396 252.163 28.5274C249.882 27.5645 248.108 26.3989 248.108 23.789C248.108 22.0406 249.451 19.6587 252.999 19.6587C255.229 19.6587 256.901 20.8243 257.129 20.9763C257.306 21.0777 257.484 21.4071 257.256 21.7365C257.078 22.0152 256.876 22.3193 256.698 22.5727C256.521 22.8514 256.242 23.0034 255.913 22.8007C255.761 22.6994 254.19 21.6858 252.897 21.6858C251.022 21.6858 250.389 22.8767 250.389 23.6876C250.389 24.9545 251.377 25.7401 253.227 26.5002C255.811 27.5391 258.016 28.7808 258.016 31.492C258.016 33.8232 255.938 35.6983 253.049 35.6983C250.338 35.6983 248.615 34.2793 248.26 33.9246C248.058 33.7725 247.906 33.6205 248.108 33.2404Z" fill="white"/>
<defs>
<linearGradient id="paint0_linear_147_84" x1="22.6446" y1="33.3308" x2="42.4637" y2="33.3308" gradientUnits="userSpaceOnUse">
<stop stop-color="#E0C56F"/>
<stop offset="0.00446948" stop-color="#E0C56F"/>
<stop offset="1" stop-color="#976218"/>
</linearGradient>
<linearGradient id="paint1_linear_147_84" x1="34.8523" y1="69.5316" x2="27.4639" y2="59.7875" gradientUnits="userSpaceOnUse">
<stop stop-color="#E0C56F"/>
<stop offset="0.00446948" stop-color="#E0C56F"/>
<stop offset="1" stop-color="#976218"/>
</linearGradient>
<linearGradient id="paint2_linear_147_84" x1="-0.010785" y1="33.6224" x2="55.1046" y2="33.6224" gradientUnits="userSpaceOnUse">
<stop stop-color="#CBCCCC"/>
<stop offset="0.00447002" stop-color="#CBCCCC"/>
<stop offset="0.6688" stop-color="#959696"/>
<stop offset="1" stop-color="#7F8080"/>
</linearGradient>
<linearGradient id="paint3_linear_147_84" x1="0.14553" y1="28.2693" x2="65.1245" y2="28.2693" gradientUnits="userSpaceOnUse">
<stop stop-color="#504F53"/>
<stop offset="6.71301e-07" stop-color="#504F53"/>
<stop offset="1"/>
</linearGradient>
<linearGradient id="paint4_linear_147_84" x1="31.6129" y1="12.221" x2="45.9286" y2="61.2522" gradientUnits="userSpaceOnUse">
<stop stop-color="#E0C56F"/>
<stop offset="0.00446948" stop-color="#E0C56F"/>
<stop offset="1" stop-color="#976218"/>
</linearGradient>
<linearGradient id="paint5_linear_147_84" x1="45.1806" y1="9.25222" x2="19.1738" y2="18.796" gradientUnits="userSpaceOnUse">
<stop stop-color="#E0C56F"/>
<stop offset="0.00446948" stop-color="#E0C56F"/>
<stop offset="1" stop-color="#976218"/>
</linearGradient>
<linearGradient id="paint6_linear_147_84" x1="30.3431" y1="61.1001" x2="50.163" y2="42.8259" gradientUnits="userSpaceOnUse">
<stop stop-color="#CBCCCC"/>
<stop offset="0.00447002" stop-color="#CBCCCC"/>
<stop offset="0.6688" stop-color="#959696"/>
<stop offset="1" stop-color="#7F8080"/>
</linearGradient>
<linearGradient id="paint7_linear_147_84" x1="6.70872" y1="24.6578" x2="19.5928" y2="49.7102" gradientUnits="userSpaceOnUse">
<stop stop-color="#504F53"/>
<stop offset="6.71301e-07" stop-color="#504F53"/>
<stop offset="1"/>
</linearGradient>
</defs>
</svg>
