<svg width="177" height="38" viewBox="0 0 177 38" fill="none" xmlns="http://www.w3.org/2000/svg">
<path d="M0.000335693 24.9764C0.000335693 24.799 0.152371 24.647 0.329744 24.647H1.03924C1.21661 24.647 1.36864 24.799 1.36864 24.9764V36.5563C1.36864 36.7337 1.21661 36.8857 1.03924 36.8857H0.329744C0.152371 36.8857 0.000335693 36.7337 0.000335693 36.5563V24.9764Z" fill="#7F8080"/>
<path d="M4.53747 30.9561H3.6506C3.44789 30.9561 3.3212 30.8041 3.3212 30.6267V30.2466C3.3212 30.0439 3.47323 29.9172 3.6506 29.9172H4.53747V27.9661C4.53747 27.7887 4.68951 27.6367 4.86688 27.6367L5.42434 27.6113C5.60171 27.6113 5.72841 27.7634 5.72841 27.9407V29.9172H7.75553C7.95824 29.9172 8.08494 30.0692 8.08494 30.2466V30.6267C8.08494 30.8041 7.9329 30.9561 7.75553 30.9561H5.72841V35.061C5.72841 35.7705 5.90578 35.8972 6.3112 35.8972C6.74197 35.8972 7.35011 35.6438 7.57816 35.5171C7.83155 35.3651 7.90757 35.4918 8.00892 35.6185L8.26231 36.0492C8.38901 36.2519 8.33833 36.3533 8.13562 36.48C7.88223 36.632 6.94468 37.0628 6.13383 37.0628C4.74018 37.0628 4.51213 36.2266 4.51213 35.137V30.9561H4.53747Z" fill="#7F8080"/>
<path d="M9.55204 29.0556C9.47602 28.9796 9.47602 28.8022 9.65339 28.6248C9.83077 28.4728 10.743 27.6873 10.743 26.4203C10.667 26.4457 10.5909 26.4457 10.5403 26.4457C10.0081 26.4457 9.55204 25.9896 9.55204 25.4575C9.55204 24.9 10.0081 24.4692 10.5403 24.4692C11.0977 24.4692 11.7059 24.7733 11.7059 26.0403C11.7059 27.4846 10.7936 28.7515 10.2362 29.2837C10.0588 29.4357 9.93212 29.4357 9.80543 29.309L9.55204 29.0556Z" fill="#7F8080"/>
<path d="M13.1001 35.923C13.1762 35.8216 13.3028 35.5682 13.3535 35.4922C13.4295 35.3402 13.6323 35.3148 13.835 35.4415C13.835 35.4415 14.5951 36.0496 15.482 36.0496C16.1915 36.0496 16.6223 35.6949 16.6223 35.2135C16.6223 34.6053 16.0901 34.3266 15.0766 33.8198C14.139 33.3637 13.0748 32.7556 13.0748 31.5646C13.0748 30.8298 13.6576 29.7402 15.3046 29.7402C16.2168 29.7402 16.9263 30.0443 17.2557 30.2723C17.4078 30.3737 17.4585 30.6271 17.3571 30.8045L17.2051 31.0832C17.1037 31.2859 16.8503 31.3366 16.6983 31.2352C16.6983 31.2352 15.9381 30.8045 15.3046 30.8045C14.5191 30.8045 14.3164 31.2099 14.3164 31.514C14.3164 32.0968 14.8992 32.3501 15.6087 32.7049C16.825 33.2877 17.8892 33.8198 17.8892 35.0868C17.8892 36.1003 16.901 37.0632 15.482 37.0632C14.3164 37.0632 13.5816 36.5818 13.2015 36.2777C13.1001 36.2017 13.0495 36.0243 13.1001 35.923Z" fill="#7F8080"/>
<path d="M29.5447 36.5569C29.5447 36.7342 29.3927 36.8863 29.2153 36.8863H28.8605C28.7085 36.8863 28.6071 36.7596 28.5565 36.6076L28.4551 36.1261C28.4551 36.1261 27.6189 37.0637 26.3013 37.0637C24.5276 37.0637 23.1086 35.3913 23.1086 33.3895C23.1086 31.3877 24.5022 29.7153 26.4026 29.7153C27.6696 29.7153 28.4298 30.4502 28.4298 30.4502L28.5565 30.1461C28.6071 29.9941 28.7085 29.8927 28.8859 29.8927H29.1899C29.3673 29.8927 29.5193 30.0447 29.5193 30.2221V36.5569H29.5447ZM28.3284 31.6918C28.3284 31.6918 27.6696 30.8303 26.5547 30.8303C25.161 30.8303 24.3502 32.0465 24.3502 33.4148C24.3502 34.7832 25.161 35.9741 26.428 35.9741C27.6949 35.9741 28.3284 34.8085 28.3284 34.8085V31.6918Z" fill="#7F8080"/>
<path d="M32.0795 24.9764C32.0795 24.799 32.2315 24.647 32.4089 24.647H32.941C33.1184 24.647 33.2704 24.799 33.2704 24.9764V36.5563C33.2704 36.7337 33.1184 36.8857 32.941 36.8857H32.4089C32.2315 36.8857 32.0795 36.7337 32.0795 36.5563V24.9764Z" fill="#7F8080"/>
<path d="M35.8039 24.9764C35.8039 24.799 35.9559 24.647 36.1333 24.647H36.6654C36.8428 24.647 36.9948 24.799 36.9948 24.9764V36.5563C36.9948 36.7337 36.8428 36.8857 36.6654 36.8857H36.1333C35.9559 36.8857 35.8039 36.7337 35.8039 36.5563V24.9764Z" fill="#7F8080"/>
<path d="M49.3342 36.5569C49.3342 36.7342 49.1822 36.8863 49.0048 36.8863H48.6501C48.4981 36.8863 48.3967 36.7596 48.346 36.6076L48.2447 36.1261C48.2447 36.1261 47.4085 37.0637 46.0909 37.0637C44.3171 37.0637 42.8981 35.3913 42.8981 33.3895C42.8981 31.3877 44.2918 29.7153 46.1922 29.7153C47.4592 29.7153 48.2193 30.4502 48.2193 30.4502L48.346 30.1461C48.3967 29.9941 48.4981 29.8927 48.6754 29.8927H48.9795C49.1569 29.8927 49.3089 30.0447 49.3089 30.2221V36.5569H49.3342ZM48.0926 31.6918C48.0926 31.6918 47.4338 30.8303 46.3189 30.8303C44.9253 30.8303 44.1144 32.0465 44.1144 33.4148C44.1144 34.7832 44.9253 35.9741 46.1922 35.9741C47.4592 35.9741 48.0926 34.8085 48.0926 34.8085V31.6918Z" fill="#7F8080"/>
<path d="M51.8435 24.9764C51.8435 24.799 51.9955 24.647 52.1729 24.647H52.705C52.8824 24.647 53.0344 24.799 53.0344 24.9764V30.1709C53.0344 30.1709 53.7439 29.7148 54.9095 29.7148C57.0126 29.7148 58.2796 31.3365 58.2796 33.3636C58.2796 35.3654 56.8859 37.0631 55.0869 37.0631C53.7692 37.0631 52.9331 36.1256 52.9331 36.1256L52.8317 36.607C52.8064 36.759 52.6797 36.8857 52.5276 36.8857H52.1729C51.9955 36.8857 51.8435 36.7337 51.8435 36.5563V24.9764ZM54.9855 35.9735C56.2525 35.9735 57.0633 34.7573 57.0633 33.4143C57.0633 32.0206 56.3031 30.9057 54.7828 30.9057C53.8199 30.9057 53.0851 31.3365 53.0851 31.3365V34.8333C53.0598 34.8079 53.7186 35.9735 54.9855 35.9735Z" fill="#7F8080"/>
<path d="M63.2466 29.7153C65.1977 29.7153 66.7181 31.3877 66.7181 33.3642C66.7181 35.3659 65.1724 37.0637 63.2466 37.0637C61.2955 37.0637 59.7752 35.3913 59.7752 33.3642C59.7498 31.3877 61.2955 29.7153 63.2466 29.7153ZM63.2466 35.9234C64.5136 35.9234 65.5271 34.7831 65.5271 33.3642C65.5271 31.9705 64.5389 30.8556 63.2466 30.8556C61.9797 30.8556 60.9661 31.9705 60.9661 33.3642C60.9661 34.7831 61.9543 35.9234 63.2466 35.9234Z" fill="#7F8080"/>
<path d="M68.6188 30.222C68.6188 30.0446 68.7708 29.8926 68.9482 29.8926H69.5057C69.6831 29.8926 69.8351 30.0446 69.8351 30.222V33.9215C69.8351 35.2391 70.4179 35.8979 71.4061 35.8979C72.7237 35.8979 73.4839 34.9097 73.4839 34.9097V30.2473C73.4839 30.07 73.6359 29.9179 73.8133 29.9179H74.3454C74.5228 29.9179 74.6748 30.07 74.6748 30.2473V36.5821C74.6748 36.7595 74.5228 36.9115 74.3454 36.9115H74.016C73.8133 36.9115 73.7626 36.7848 73.712 36.6074L73.5853 36.1513C73.5853 36.1513 72.7744 37.0889 71.3048 37.0889C69.2776 37.0889 68.5935 35.7712 68.5935 33.9215V30.222H68.6188Z" fill="#7F8080"/>
<path d="M77.64 30.9561H76.7531C76.5504 30.9561 76.4237 30.8041 76.4237 30.6267V30.2466C76.4237 30.0439 76.5757 29.9172 76.7531 29.9172H77.64V27.9661C77.64 27.7887 77.792 27.6367 77.9694 27.6367L78.5268 27.6113C78.7042 27.6113 78.8309 27.7634 78.8309 27.9407V29.9172H80.858C81.0607 29.9172 81.1874 30.0692 81.1874 30.2466V30.6267C81.1874 30.8041 81.0354 30.9561 80.858 30.9561H78.8309V35.061C78.8309 35.7705 79.0083 35.8972 79.4137 35.8972C79.8445 35.8972 80.4526 35.6438 80.6807 35.5171C80.934 35.3651 81.0101 35.4918 81.1114 35.6185L81.3648 36.0492C81.4915 36.2519 81.4408 36.3533 81.2381 36.48C80.9847 36.632 80.0472 37.0628 79.2363 37.0628C77.8427 37.0628 77.6146 36.2266 77.6146 35.137V30.9561H77.64Z" fill="#7F8080"/>
<path d="M87.0656 24.9764C87.0656 24.799 87.2176 24.647 87.395 24.647H87.9271C88.1045 24.647 88.2565 24.799 88.2565 24.9764V30.1709C88.2565 30.1709 88.966 29.7148 90.1316 29.7148C92.2347 29.7148 93.5017 31.3365 93.5017 33.3636C93.5017 35.3654 92.1081 37.0631 90.309 37.0631C88.9914 37.0631 88.1552 36.1256 88.1552 36.1256L88.0538 36.607C88.0285 36.759 87.9018 36.8857 87.7497 36.8857H87.395C87.2176 36.8857 87.0656 36.7337 87.0656 36.5563V24.9764ZM90.2076 35.9735C91.4746 35.9735 92.2854 34.7573 92.2854 33.4143C92.2854 32.0206 91.5253 30.9057 90.0049 30.9057C89.042 30.9057 88.3072 31.3365 88.3072 31.3365V34.8333C88.2819 34.8079 88.9407 35.9735 90.2076 35.9735Z" fill="#7F8080"/>
<path d="M98.3906 29.7153C100.215 29.7153 101.558 31.0836 101.558 32.9081C101.558 33.0348 101.533 33.2628 101.533 33.3895C101.507 33.5669 101.381 33.6936 101.229 33.6936H96.1861C96.2621 34.8592 97.301 35.9741 98.5426 35.9741C99.2774 35.9741 99.8602 35.6954 100.266 35.442C100.519 35.2899 100.62 35.2139 100.747 35.4166C100.848 35.5687 100.95 35.67 101.051 35.8221C101.178 35.9741 101.254 36.0754 100.975 36.2782C100.544 36.6076 99.6068 37.089 98.4159 37.089C96.2874 37.089 94.9951 35.4166 94.9951 33.4148C94.9698 31.4131 96.2874 29.7153 98.3906 29.7153ZM100.367 32.7053C100.316 31.6918 99.4801 30.7796 98.4159 30.7796C97.2503 30.7796 96.3381 31.6158 96.2114 32.7053H100.367Z" fill="#7F8080"/>
<path d="M103.484 24.9764C103.484 24.799 103.636 24.647 103.814 24.647H104.346C104.523 24.647 104.675 24.799 104.675 24.9764V30.6523C104.675 30.6523 105.613 29.7148 107.032 29.7148C108.755 29.7148 109.743 30.8044 109.743 32.8568V36.5563C109.743 36.7337 109.591 36.8857 109.414 36.8857H108.856C108.679 36.8857 108.527 36.7337 108.527 36.5563V32.8568C108.527 31.5392 107.944 30.8804 106.956 30.8804C105.638 30.8804 104.701 31.8686 104.701 31.8686V36.5563C104.701 36.7337 104.549 36.8857 104.371 36.8857H103.839C103.662 36.8857 103.51 36.7337 103.51 36.5563V24.9764H103.484Z" fill="#7F8080"/>
<path d="M118.081 36.5569C118.081 36.7342 117.929 36.8863 117.751 36.8863H117.371C117.219 36.8863 117.118 36.7596 117.067 36.6076L116.966 36.1261C116.966 36.1261 116.129 37.0637 114.812 37.0637C113.038 37.0637 111.619 35.3913 111.619 33.3895C111.619 31.3877 113.013 29.7153 114.913 29.7153C116.18 29.7153 116.94 30.4502 116.94 30.4502L117.067 30.1461C117.118 29.9941 117.219 29.8927 117.396 29.8927H117.7C117.878 29.8927 118.03 30.0447 118.03 30.2221V36.5569H118.081ZM116.864 31.6918C116.864 31.6918 116.205 30.8303 115.091 30.8303C113.697 30.8303 112.886 32.0465 112.886 33.4148C112.886 34.7832 113.697 35.9741 114.964 35.9741C116.231 35.9741 116.864 34.8085 116.864 34.8085V31.6918Z" fill="#7F8080"/>
<path d="M119.626 30.298C119.525 30.0699 119.626 29.8926 119.879 29.8926H120.412C120.564 29.8926 120.665 29.9686 120.716 30.0953L122.895 35.0871H122.92L125.226 30.0953C125.277 29.9939 125.378 29.8926 125.53 29.8926H125.986C126.24 29.8926 126.366 30.0699 126.24 30.298L123.25 36.8861C123.224 36.9622 123.098 37.0635 122.945 37.0635H122.869C122.717 37.0635 122.616 36.9875 122.565 36.8861L119.626 30.298Z" fill="#7F8080"/>
<path d="M127.532 25.8377C127.532 25.3562 127.912 25.0015 128.343 25.0015C128.824 25.0015 129.179 25.3562 129.179 25.8377C129.179 26.2938 128.824 26.6485 128.343 26.6485C127.912 26.6485 127.532 26.2938 127.532 25.8377ZM127.785 30.2213C127.785 30.0439 127.937 29.8919 128.115 29.8919H128.647C128.824 29.8919 128.976 30.0439 128.976 30.2213V36.5561C128.976 36.7334 128.824 36.8855 128.647 36.8855H128.115C127.937 36.8855 127.785 36.7334 127.785 36.5561V30.2213Z" fill="#7F8080"/>
<path d="M134.449 29.7153C136.4 29.7153 137.921 31.3877 137.921 33.3642C137.921 35.3659 136.375 37.0637 134.449 37.0637C132.498 37.0637 130.978 35.3913 130.978 33.3642C130.952 31.3877 132.498 29.7153 134.449 29.7153ZM134.449 35.9234C135.716 35.9234 136.73 34.7831 136.73 33.3642C136.73 31.9705 135.741 30.8556 134.449 30.8556C133.182 30.8556 132.169 31.9705 132.169 33.3642C132.169 34.7831 133.157 35.9234 134.449 35.9234Z" fill="#7F8080"/>
<path d="M139.896 30.2221C139.896 30.0447 140.048 29.8927 140.225 29.8927H140.555C140.707 29.8927 140.808 29.9687 140.859 30.1461L141.011 30.6529C141.011 30.6529 141.67 29.7153 143.114 29.7153C143.646 29.7153 144.508 29.7913 144.33 30.2981L144.128 30.8809C144.052 31.109 143.874 31.109 143.697 31.033C143.545 30.9569 143.266 30.8809 143.013 30.8809C141.695 30.8809 141.112 31.8692 141.112 31.8692V36.5315C141.112 36.7089 140.96 36.8609 140.783 36.8609H140.251C140.073 36.8609 139.921 36.7089 139.921 36.5315V30.2221H139.896Z" fill="#7F8080"/>
<path d="M0.0513821 16.0564L6.89293 1.05564C6.96894 0.928941 7.17166 0.802246 7.27301 0.802246H7.50106C7.60242 0.802246 7.80513 0.903602 7.88115 1.05564L14.672 16.0564C14.7987 16.3351 14.6213 16.6392 14.2919 16.6392H12.8983C12.6196 16.6392 12.4675 16.5125 12.3915 16.3097L10.9979 13.2437H3.70021C3.2441 14.2573 2.788 15.2708 2.3319 16.3097C2.25588 16.4618 2.07851 16.6392 1.82512 16.6392H0.431468C0.10206 16.6392 -0.100652 16.3604 0.0513821 16.0564ZM10.1363 11.3433L7.39971 5.23658H7.29835L4.56173 11.3433H10.1363Z" fill="#976218"/>
<path d="M16.9012 1.46202C16.9012 1.23397 17.0786 1.03125 17.3319 1.03125H22.3237C25.0097 1.03125 26.9608 2.805 26.9608 5.16153C26.9608 6.88458 25.6938 8.10086 24.6296 8.70899C25.8205 9.19044 27.4169 10.28 27.4169 12.3325C27.4169 14.841 25.3644 16.6401 22.5518 16.6401H17.3319C17.0786 16.6401 16.9012 16.4374 16.9012 16.2093V1.46202ZM22.5518 14.5876C23.9201 14.5876 24.959 13.5487 24.959 12.1551C24.959 10.7868 23.6667 9.8239 22.2224 9.8239H19.1564V14.5876H22.5518ZM22.197 7.82213C23.616 7.82213 24.5029 6.78322 24.5029 5.44025C24.5029 4.07194 23.6414 3.1344 22.197 3.1344H19.1817V7.82213H22.197Z" fill="#976218"/>
<path d="M28.6851 16.0564L35.5266 1.05564C35.6026 0.928941 35.8053 0.802246 35.9067 0.802246H36.1347C36.2361 0.802246 36.4388 0.903602 36.5148 1.05564L43.3057 16.0564C43.4324 16.3351 43.255 16.6392 42.9256 16.6392H41.532C41.2532 16.6392 41.1012 16.5125 41.0252 16.3097L39.6315 13.2437H32.3339C31.8778 14.2573 31.4217 15.2708 30.9656 16.3097C30.8896 16.4618 30.7122 16.6392 30.4588 16.6392H29.0652C28.7104 16.6392 28.533 16.3604 28.6851 16.0564ZM38.77 11.3433L36.0334 5.23658H35.932L33.1954 11.3433H38.77Z" fill="#976218"/>
<path d="M50.4512 1.46202C50.4512 1.23397 50.6286 1.03125 50.882 1.03125H56.938C59.624 1.03125 61.8031 3.15974 61.8031 5.795C61.8031 7.84747 60.4348 9.54517 58.509 10.3307L61.5751 16.0066C61.7271 16.2854 61.5751 16.6654 61.195 16.6654H59.4466C59.2692 16.6654 59.1425 16.5641 59.0918 16.4627L56.1272 10.5587H52.7571V16.2347C52.7571 16.4627 52.5544 16.6654 52.3263 16.6654H50.882C50.6286 16.6654 50.4512 16.4627 50.4512 16.2347V1.46202ZM56.7607 8.60763C58.205 8.60763 59.4719 7.39135 59.4719 5.84567C59.4719 4.40134 58.205 3.18507 56.7607 3.18507H52.7824V8.60763H56.7607Z" fill="white"/>
<path d="M65.2745 1.46202C65.2745 1.23397 65.4519 1.03125 65.7053 1.03125H74.6246C74.878 1.03125 75.0554 1.23397 75.0554 1.46202V2.70364C75.0554 2.93169 74.878 3.1344 74.6246 3.1344H67.5804V7.69543H73.5351C73.7631 7.69543 73.9658 7.89813 73.9658 8.12618V9.3678C73.9658 9.62119 73.7631 9.79857 73.5351 9.79857H67.5804V14.5623H74.6246C74.878 14.5623 75.0554 14.765 75.0554 14.9931V16.2093C75.0554 16.4374 74.878 16.6401 74.6246 16.6401H65.7053C65.4519 16.6401 65.2745 16.4374 65.2745 16.2093V1.46202Z" fill="white"/>
<path d="M77.3863 14.384C77.589 14.1052 77.7664 13.7505 77.9691 13.4718C78.1718 13.193 78.4759 13.0917 78.7293 13.2944C78.856 13.3957 80.579 14.8401 82.3021 14.8401C83.8478 14.8401 84.8106 13.9025 84.8106 12.7623C84.8106 11.4193 83.645 10.5831 81.4405 9.67091C79.16 8.70803 77.3863 7.54243 77.3863 4.93251C77.3863 3.18411 78.7293 0.802246 82.2767 0.802246C84.5066 0.802246 86.1789 1.96785 86.407 2.11988C86.5844 2.22124 86.7617 2.55064 86.5337 2.88005C86.3563 3.15878 86.1536 3.46285 85.9762 3.71624C85.7989 3.99497 85.5201 4.14699 85.1907 3.94428C85.0387 3.84292 83.4677 2.82937 82.1754 2.82937C80.3003 2.82937 79.6668 4.0203 79.6668 4.83115C79.6668 6.0981 80.655 6.88362 82.5048 7.64379C85.0894 8.68269 87.2939 9.92431 87.2939 12.6356C87.2939 14.9668 85.2161 16.8419 82.3274 16.8419C79.6161 16.8419 77.8931 15.4229 77.5383 15.0681C77.3356 14.9161 77.1836 14.7641 77.3863 14.384Z" fill="white"/>
<path d="M97.2526 0.802246C101.712 0.802246 105.285 4.40039 105.285 8.86006C105.285 13.3197 101.712 16.8672 97.2526 16.8672C92.7929 16.8672 89.2455 13.3197 89.2455 8.86006C89.2455 4.40039 92.7929 0.802246 97.2526 0.802246ZM97.2526 14.6374C100.445 14.6374 103.055 12.0528 103.055 8.86006C103.055 5.69268 100.445 3.03208 97.2526 3.03208C94.0852 3.03208 91.4753 5.69268 91.4753 8.86006C91.4753 12.0528 94.0852 14.6374 97.2526 14.6374Z" fill="white"/>
<path d="M108.25 1.46202C108.25 1.23397 108.453 1.03125 108.681 1.03125H110.176C110.429 1.03125 110.607 1.23397 110.607 1.46202V10.6601C110.607 12.8899 112.026 14.6383 114.306 14.6383C116.612 14.6383 118.056 12.9153 118.056 10.7108V1.46202C118.056 1.23397 118.234 1.03125 118.487 1.03125H119.982C120.21 1.03125 120.413 1.23397 120.413 1.46202V10.8375C120.413 14.2329 117.854 16.8682 114.332 16.8682C110.835 16.8682 108.301 14.2076 108.301 10.8375V1.46202H108.25Z" fill="white"/>
<path d="M124.518 1.46202C124.518 1.23397 124.695 1.03125 124.948 1.03125H131.004C133.69 1.03125 135.87 3.15974 135.87 5.795C135.87 7.84747 134.501 9.54517 132.575 10.3307L135.641 16.0066C135.794 16.2854 135.641 16.6654 135.261 16.6654H133.513C133.336 16.6654 133.209 16.5641 133.158 16.4627L130.194 10.5587H126.823V16.2347C126.823 16.4627 126.621 16.6654 126.393 16.6654H124.948C124.695 16.6654 124.518 16.4627 124.518 16.2347V1.46202ZM130.827 8.60763C132.271 8.60763 133.538 7.39135 133.538 5.84567C133.538 4.40134 132.271 3.18507 130.827 3.18507H126.849V8.60763H130.827Z" fill="white"/>
<path d="M146.258 0.802246C148.513 0.802246 150.135 1.56242 151.655 2.88005C151.858 3.05742 151.858 3.33615 151.68 3.51353L150.692 4.52709C150.54 4.7298 150.337 4.7298 150.135 4.52709C149.096 3.61488 147.651 3.03208 146.283 3.03208C143.09 3.03208 140.683 5.71802 140.683 8.83473C140.683 11.9514 143.116 14.612 146.308 14.612C147.93 14.612 149.07 13.9532 150.135 13.1424C150.337 12.9903 150.54 13.0157 150.667 13.117L151.68 14.1306C151.858 14.2826 151.807 14.5867 151.655 14.7387C150.135 16.2084 148.209 16.8925 146.232 16.8925C141.773 16.8925 138.175 13.3451 138.175 8.88539C138.2 4.40038 141.798 0.802246 146.258 0.802246Z" fill="white"/>
<path d="M154.873 1.46202C154.873 1.23397 155.051 1.03125 155.304 1.03125H164.198C164.451 1.03125 164.629 1.23397 164.629 1.46202V2.70364C164.629 2.93169 164.451 3.1344 164.198 3.1344H157.154V7.69543H163.108C163.337 7.69543 163.539 7.89813 163.539 8.12618V9.3678C163.539 9.62119 163.337 9.79857 163.108 9.79857H157.154V14.5623H164.198C164.451 14.5623 164.629 14.765 164.629 14.9931V16.2093C164.629 16.4374 164.451 16.6401 164.198 16.6401H155.279C155.025 16.6401 154.848 16.4374 154.848 16.2093V1.46202H154.873Z" fill="white"/>
<path d="M166.984 14.384C167.187 14.1052 167.364 13.7505 167.567 13.4718C167.77 13.193 168.074 13.0917 168.327 13.2944C168.454 13.3957 170.177 14.8401 171.9 14.8401C173.446 14.8401 174.409 13.9025 174.409 12.7623C174.409 11.4193 173.243 10.5831 171.038 9.67091C168.758 8.70803 166.984 7.54243 166.984 4.93251C166.984 3.18411 168.327 0.802246 171.875 0.802246C174.104 0.802246 175.777 1.96785 176.005 2.11988C176.182 2.22124 176.36 2.55064 176.132 2.88005C175.954 3.15878 175.751 3.46285 175.574 3.71624C175.397 3.99497 175.118 4.14699 174.789 3.94428C174.637 3.84292 173.066 2.82937 171.773 2.82937C169.898 2.82937 169.265 4.0203 169.265 4.83115C169.265 6.0981 170.253 6.88362 172.103 7.64379C174.687 8.68269 176.892 9.92431 176.892 12.6356C176.892 14.9668 174.814 16.8419 171.925 16.8419C169.214 16.8419 167.491 15.4229 167.136 15.0681C166.933 14.9161 166.781 14.7641 166.984 14.384Z" fill="white"/>
</svg>
